<svg id="Calque_1" xmlns="http://www.w3.org/2000/svg" xmlns:xlink="http://www.w3.org/1999/xlink" viewBox="0 0 70 70"><style>.st0{clip-path:url(#SVGID_2_);fill:#FFFFFF;} .st1{clip-path:url(#SVGID_4_);fill:#2800aa;} .st2{clip-path:url(#SVGID_4_);fill:#FFFFFF;}</style><defs><path id="SVGID_1_" d="M2 2.2h64.8V67H2z"/></defs><clipPath id="SVGID_2_"><use xlink:href="#SVGID_1_" overflow="visible"/></clipPath><path class="st0" d="M66.8 34.6C66.8 52.5 52.3 67 34.4 67S2 52.5 2 34.6 16.5 2.2 34.4 2.2s32.4 14.5 32.4 32.4"/><g><defs><path id="SVGID_3_" d="M0 0h70v70H0z"/></defs><clipPath id="SVGID_4_"><use xlink:href="#SVGID_3_" overflow="visible"/></clipPath><path class="st1" d="M70 35c0 19.3-15.7 35-35 35S0 54.3 0 35 15.7 0 35 0s35 15.7 35 35"/><path class="st2" d="M67.4 35c0 17.9-14.5 32.4-32.4 32.4S2.6 52.9 2.6 35 17.1 2.6 35 2.6 67.4 17.1 67.4 35"/><path class="st1" d="M23.4 53.7v9.5S4.5 57.7 4.7 34C4.8 11.4 26.5 4 33.5 4.7v60.7c-3.7.1-4.5-.3-7.2-1.1V49.1h-8.9c-.1 0 3.9 3.9 6 4.6"/><path class="st2" d="M24.6 16.7v21.7h-11s-2.1-15.6 11-21.7"/><path class="st1" d="M36.9 4.6l-.1 60.7c3.4.2 5.7-.3 9.2-1.7V45.4l7.1 14.4c3.3-2.1 4.8-4 6.6-6.8l-10-22.9 11.4-10.8c-1.2-2.4-3.5-5.3-5.3-6.5L46 20.6V6.5c-3.9-1.6-4.6-1.6-9.1-1.9"/></g></svg>
